<svg xmlns="http://www.w3.org/2000/svg" xmlns:xlink="http://www.w3.org/1999/xlink" width="380" height="185" viewBox="0 0 380 185">
  <defs>
    <clipPath id="clip-path">
      <rect id="Rectangle_1" data-name="Rectangle 1" width="380" height="185" transform="translate(759 302)" fill="#fff" stroke="#fff" stroke-width="1"/>
    </clipPath>
    <clipPath id="clip-path-2">
      <rect width="1259.853" height="310.985" fill="none"/>
    </clipPath>
  </defs>
  <g id="Mask_Group_1" data-name="Mask Group 1" transform="translate(-759 -302)" clip-path="url(#clip-path)">
    <g id="Repeat_Grid_2" data-name="Repeat Grid 2" transform="translate(452.738 290.519)" clip-path="url(#clip-path-2)">
      <g transform="translate(-464.146 -284.146)">
        <line id="Line_1" data-name="Line 1" y1="204" x2="204" transform="translate(464.5 284.5)" fill="none" stroke="#fff" stroke-width="1"/>
      </g>
      <g transform="translate(-453.146 -284.146)">
        <line id="Line_1-2" data-name="Line 1" y1="204" x2="204" transform="translate(464.5 284.5)" fill="none" stroke="#fff" stroke-width="1"/>
      </g>
      <g transform="translate(-442.146 -284.146)">
        <line id="Line_1-3" data-name="Line 1" y1="204" x2="204" transform="translate(464.5 284.5)" fill="none" stroke="#fff" stroke-width="1"/>
      </g>
      <g transform="translate(-431.146 -284.146)">
        <line id="Line_1-4" data-name="Line 1" y1="204" x2="204" transform="translate(464.5 284.5)" fill="none" stroke="#fff" stroke-width="1"/>
      </g>
      <g transform="translate(-420.146 -284.146)">
        <line id="Line_1-5" data-name="Line 1" y1="204" x2="204" transform="translate(464.5 284.5)" fill="none" stroke="#fff" stroke-width="1"/>
      </g>
      <g transform="translate(-409.146 -284.146)">
        <line id="Line_1-6" data-name="Line 1" y1="204" x2="204" transform="translate(464.5 284.5)" fill="none" stroke="#fff" stroke-width="1"/>
      </g>
      <g transform="translate(-398.146 -284.146)">
        <line id="Line_1-7" data-name="Line 1" y1="204" x2="204" transform="translate(464.5 284.5)" fill="none" stroke="#fff" stroke-width="1"/>
      </g>
      <g transform="translate(-387.146 -284.146)">
        <line id="Line_1-8" data-name="Line 1" y1="204" x2="204" transform="translate(464.5 284.5)" fill="none" stroke="#fff" stroke-width="1"/>
      </g>
      <g transform="translate(-376.146 -284.146)">
        <line id="Line_1-9" data-name="Line 1" y1="204" x2="204" transform="translate(464.5 284.5)" fill="none" stroke="#fff" stroke-width="1"/>
      </g>
      <g transform="translate(-365.146 -284.146)">
        <line id="Line_1-10" data-name="Line 1" y1="204" x2="204" transform="translate(464.5 284.5)" fill="none" stroke="#fff" stroke-width="1"/>
      </g>
      <g transform="translate(-354.146 -284.146)">
        <line id="Line_1-11" data-name="Line 1" y1="204" x2="204" transform="translate(464.5 284.5)" fill="none" stroke="#fff" stroke-width="1"/>
      </g>
      <g transform="translate(-343.146 -284.146)">
        <line id="Line_1-12" data-name="Line 1" y1="204" x2="204" transform="translate(464.5 284.5)" fill="none" stroke="#fff" stroke-width="1"/>
      </g>
      <g transform="translate(-332.146 -284.146)">
        <line id="Line_1-13" data-name="Line 1" y1="204" x2="204" transform="translate(464.5 284.5)" fill="none" stroke="#fff" stroke-width="1"/>
      </g>
      <g transform="translate(-321.146 -284.146)">
        <line id="Line_1-14" data-name="Line 1" y1="204" x2="204" transform="translate(464.5 284.5)" fill="none" stroke="#fff" stroke-width="1"/>
      </g>
      <g transform="translate(-310.146 -284.146)">
        <line id="Line_1-15" data-name="Line 1" y1="204" x2="204" transform="translate(464.5 284.5)" fill="none" stroke="#fff" stroke-width="1"/>
      </g>
      <g transform="translate(-299.146 -284.146)">
        <line id="Line_1-16" data-name="Line 1" y1="204" x2="204" transform="translate(464.5 284.5)" fill="none" stroke="#fff" stroke-width="1"/>
      </g>
      <g transform="translate(-288.146 -284.146)">
        <line id="Line_1-17" data-name="Line 1" y1="204" x2="204" transform="translate(464.5 284.5)" fill="none" stroke="#fff" stroke-width="1"/>
      </g>
      <g transform="translate(-277.146 -284.146)">
        <line id="Line_1-18" data-name="Line 1" y1="204" x2="204" transform="translate(464.5 284.5)" fill="none" stroke="#fff" stroke-width="1"/>
      </g>
      <g transform="translate(-266.146 -284.146)">
        <line id="Line_1-19" data-name="Line 1" y1="204" x2="204" transform="translate(464.5 284.5)" fill="none" stroke="#fff" stroke-width="1"/>
      </g>
      <g transform="translate(-255.146 -284.146)">
        <line id="Line_1-20" data-name="Line 1" y1="204" x2="204" transform="translate(464.5 284.5)" fill="none" stroke="#fff" stroke-width="1"/>
      </g>
      <g transform="translate(-244.146 -284.146)">
        <line id="Line_1-21" data-name="Line 1" y1="204" x2="204" transform="translate(464.5 284.5)" fill="none" stroke="#fff" stroke-width="1"/>
      </g>
      <g transform="translate(-233.146 -284.146)">
        <line id="Line_1-22" data-name="Line 1" y1="204" x2="204" transform="translate(464.5 284.5)" fill="none" stroke="#fff" stroke-width="1"/>
      </g>
      <g transform="translate(-222.146 -284.146)">
        <line id="Line_1-23" data-name="Line 1" y1="204" x2="204" transform="translate(464.5 284.5)" fill="none" stroke="#fff" stroke-width="1"/>
      </g>
      <g transform="translate(-211.146 -284.146)">
        <line id="Line_1-24" data-name="Line 1" y1="204" x2="204" transform="translate(464.5 284.5)" fill="none" stroke="#fff" stroke-width="1"/>
      </g>
      <g transform="translate(-200.146 -284.146)">
        <line id="Line_1-25" data-name="Line 1" y1="204" x2="204" transform="translate(464.5 284.5)" fill="none" stroke="#fff" stroke-width="1"/>
      </g>
      <g transform="translate(-189.146 -284.146)">
        <line id="Line_1-26" data-name="Line 1" y1="204" x2="204" transform="translate(464.5 284.5)" fill="none" stroke="#fff" stroke-width="1"/>
      </g>
      <g transform="translate(-178.146 -284.146)">
        <line id="Line_1-27" data-name="Line 1" y1="204" x2="204" transform="translate(464.5 284.5)" fill="none" stroke="#fff" stroke-width="1"/>
      </g>
      <g transform="translate(-167.146 -284.146)">
        <line id="Line_1-28" data-name="Line 1" y1="204" x2="204" transform="translate(464.5 284.5)" fill="none" stroke="#fff" stroke-width="1"/>
      </g>
      <g transform="translate(-156.146 -284.146)">
        <line id="Line_1-29" data-name="Line 1" y1="204" x2="204" transform="translate(464.5 284.5)" fill="none" stroke="#fff" stroke-width="1"/>
      </g>
      <g transform="translate(-145.146 -284.146)">
        <line id="Line_1-30" data-name="Line 1" y1="204" x2="204" transform="translate(464.5 284.5)" fill="none" stroke="#fff" stroke-width="1"/>
      </g>
      <g transform="translate(-134.146 -284.146)">
        <line id="Line_1-31" data-name="Line 1" y1="204" x2="204" transform="translate(464.5 284.5)" fill="none" stroke="#fff" stroke-width="1"/>
      </g>
      <g transform="translate(-123.146 -284.146)">
        <line id="Line_1-32" data-name="Line 1" y1="204" x2="204" transform="translate(464.5 284.5)" fill="none" stroke="#fff" stroke-width="1"/>
      </g>
      <g transform="translate(-112.146 -284.146)">
        <line id="Line_1-33" data-name="Line 1" y1="204" x2="204" transform="translate(464.5 284.5)" fill="none" stroke="#fff" stroke-width="1"/>
      </g>
      <g transform="translate(-101.146 -284.146)">
        <line id="Line_1-34" data-name="Line 1" y1="204" x2="204" transform="translate(464.5 284.5)" fill="none" stroke="#fff" stroke-width="1"/>
      </g>
      <g transform="translate(-90.146 -284.146)">
        <line id="Line_1-35" data-name="Line 1" y1="204" x2="204" transform="translate(464.5 284.5)" fill="none" stroke="#fff" stroke-width="1"/>
      </g>
      <g transform="translate(-79.146 -284.146)">
        <line id="Line_1-36" data-name="Line 1" y1="204" x2="204" transform="translate(464.5 284.5)" fill="none" stroke="#fff" stroke-width="1"/>
      </g>
      <g transform="translate(-68.146 -284.146)">
        <line id="Line_1-37" data-name="Line 1" y1="204" x2="204" transform="translate(464.5 284.5)" fill="none" stroke="#fff" stroke-width="1"/>
      </g>
      <g transform="translate(-57.146 -284.146)">
        <line id="Line_1-38" data-name="Line 1" y1="204" x2="204" transform="translate(464.5 284.5)" fill="none" stroke="#fff" stroke-width="1"/>
      </g>
      <g transform="translate(-46.146 -284.146)">
        <line id="Line_1-39" data-name="Line 1" y1="204" x2="204" transform="translate(464.5 284.5)" fill="none" stroke="#fff" stroke-width="1"/>
      </g>
      <g transform="translate(-35.146 -284.146)">
        <line id="Line_1-40" data-name="Line 1" y1="204" x2="204" transform="translate(464.5 284.5)" fill="none" stroke="#fff" stroke-width="1"/>
      </g>
      <g transform="translate(-24.146 -284.146)">
        <line id="Line_1-41" data-name="Line 1" y1="204" x2="204" transform="translate(464.5 284.5)" fill="none" stroke="#fff" stroke-width="1"/>
      </g>
      <g transform="translate(-13.146 -284.146)">
        <line id="Line_1-42" data-name="Line 1" y1="204" x2="204" transform="translate(464.5 284.5)" fill="none" stroke="#fff" stroke-width="1"/>
      </g>
      <g transform="translate(-2.146 -284.146)">
        <line id="Line_1-43" data-name="Line 1" y1="204" x2="204" transform="translate(464.5 284.5)" fill="none" stroke="#fff" stroke-width="1"/>
      </g>
      <g transform="translate(8.854 -284.146)">
        <line id="Line_1-44" data-name="Line 1" y1="204" x2="204" transform="translate(464.5 284.5)" fill="none" stroke="#fff" stroke-width="1"/>
      </g>
      <g transform="translate(19.854 -284.146)">
        <line id="Line_1-45" data-name="Line 1" y1="204" x2="204" transform="translate(464.5 284.5)" fill="none" stroke="#fff" stroke-width="1"/>
      </g>
      <g transform="translate(30.854 -284.146)">
        <line id="Line_1-46" data-name="Line 1" y1="204" x2="204" transform="translate(464.5 284.5)" fill="none" stroke="#fff" stroke-width="1"/>
      </g>
      <g transform="translate(41.854 -284.146)">
        <line id="Line_1-47" data-name="Line 1" y1="204" x2="204" transform="translate(464.5 284.5)" fill="none" stroke="#fff" stroke-width="1"/>
      </g>
      <g transform="translate(52.854 -284.146)">
        <line id="Line_1-48" data-name="Line 1" y1="204" x2="204" transform="translate(464.5 284.5)" fill="none" stroke="#fff" stroke-width="1"/>
      </g>
      <g transform="translate(63.854 -284.146)">
        <line id="Line_1-49" data-name="Line 1" y1="204" x2="204" transform="translate(464.5 284.5)" fill="none" stroke="#fff" stroke-width="1"/>
      </g>
      <g transform="translate(74.854 -284.146)">
        <line id="Line_1-50" data-name="Line 1" y1="204" x2="204" transform="translate(464.5 284.5)" fill="none" stroke="#fff" stroke-width="1"/>
      </g>
      <g transform="translate(85.854 -284.146)">
        <line id="Line_1-51" data-name="Line 1" y1="204" x2="204" transform="translate(464.5 284.5)" fill="none" stroke="#fff" stroke-width="1"/>
      </g>
      <g transform="translate(96.854 -284.146)">
        <line id="Line_1-52" data-name="Line 1" y1="204" x2="204" transform="translate(464.5 284.5)" fill="none" stroke="#fff" stroke-width="1"/>
      </g>
      <g transform="translate(107.854 -284.146)">
        <line id="Line_1-53" data-name="Line 1" y1="204" x2="204" transform="translate(464.5 284.5)" fill="none" stroke="#fff" stroke-width="1"/>
      </g>
      <g transform="translate(118.854 -284.146)">
        <line id="Line_1-54" data-name="Line 1" y1="204" x2="204" transform="translate(464.5 284.5)" fill="none" stroke="#fff" stroke-width="1"/>
      </g>
      <g transform="translate(129.854 -284.146)">
        <line id="Line_1-55" data-name="Line 1" y1="204" x2="204" transform="translate(464.5 284.5)" fill="none" stroke="#fff" stroke-width="1"/>
      </g>
      <g transform="translate(140.854 -284.146)">
        <line id="Line_1-56" data-name="Line 1" y1="204" x2="204" transform="translate(464.5 284.5)" fill="none" stroke="#fff" stroke-width="1"/>
      </g>
      <g transform="translate(151.854 -284.146)">
        <line id="Line_1-57" data-name="Line 1" y1="204" x2="204" transform="translate(464.5 284.5)" fill="none" stroke="#fff" stroke-width="1"/>
      </g>
      <g transform="translate(162.854 -284.146)">
        <line id="Line_1-58" data-name="Line 1" y1="204" x2="204" transform="translate(464.5 284.5)" fill="none" stroke="#fff" stroke-width="1"/>
      </g>
      <g transform="translate(173.854 -284.146)">
        <line id="Line_1-59" data-name="Line 1" y1="204" x2="204" transform="translate(464.5 284.5)" fill="none" stroke="#fff" stroke-width="1"/>
      </g>
      <g transform="translate(184.854 -284.146)">
        <line id="Line_1-60" data-name="Line 1" y1="204" x2="204" transform="translate(464.5 284.5)" fill="none" stroke="#fff" stroke-width="1"/>
      </g>
      <g transform="translate(195.854 -284.146)">
        <line id="Line_1-61" data-name="Line 1" y1="204" x2="204" transform="translate(464.5 284.5)" fill="none" stroke="#fff" stroke-width="1"/>
      </g>
      <g transform="translate(206.854 -284.146)">
        <line id="Line_1-62" data-name="Line 1" y1="204" x2="204" transform="translate(464.5 284.5)" fill="none" stroke="#fff" stroke-width="1"/>
      </g>
      <g transform="translate(217.854 -284.146)">
        <line id="Line_1-63" data-name="Line 1" y1="204" x2="204" transform="translate(464.5 284.5)" fill="none" stroke="#fff" stroke-width="1"/>
      </g>
      <g transform="translate(228.854 -284.146)">
        <line id="Line_1-64" data-name="Line 1" y1="204" x2="204" transform="translate(464.5 284.5)" fill="none" stroke="#fff" stroke-width="1"/>
      </g>
      <g transform="translate(239.854 -284.146)">
        <line id="Line_1-65" data-name="Line 1" y1="204" x2="204" transform="translate(464.5 284.5)" fill="none" stroke="#fff" stroke-width="1"/>
      </g>
      <g transform="translate(250.854 -284.146)">
        <line id="Line_1-66" data-name="Line 1" y1="204" x2="204" transform="translate(464.5 284.5)" fill="none" stroke="#fff" stroke-width="1"/>
      </g>
      <g transform="translate(261.854 -284.146)">
        <line id="Line_1-67" data-name="Line 1" y1="204" x2="204" transform="translate(464.5 284.5)" fill="none" stroke="#fff" stroke-width="1"/>
      </g>
      <g transform="translate(272.854 -284.146)">
        <line id="Line_1-68" data-name="Line 1" y1="204" x2="204" transform="translate(464.5 284.5)" fill="none" stroke="#fff" stroke-width="1"/>
      </g>
      <g transform="translate(283.854 -284.146)">
        <line id="Line_1-69" data-name="Line 1" y1="204" x2="204" transform="translate(464.5 284.5)" fill="none" stroke="#fff" stroke-width="1"/>
      </g>
      <g transform="translate(294.854 -284.146)">
        <line id="Line_1-70" data-name="Line 1" y1="204" x2="204" transform="translate(464.5 284.5)" fill="none" stroke="#fff" stroke-width="1"/>
      </g>
      <g transform="translate(305.854 -284.146)">
        <line id="Line_1-71" data-name="Line 1" y1="204" x2="204" transform="translate(464.5 284.5)" fill="none" stroke="#fff" stroke-width="1"/>
      </g>
      <g transform="translate(316.854 -284.146)">
        <line id="Line_1-72" data-name="Line 1" y1="204" x2="204" transform="translate(464.5 284.5)" fill="none" stroke="#fff" stroke-width="1"/>
      </g>
      <g transform="translate(327.854 -284.146)">
        <line id="Line_1-73" data-name="Line 1" y1="204" x2="204" transform="translate(464.5 284.5)" fill="none" stroke="#fff" stroke-width="1"/>
      </g>
      <g transform="translate(338.854 -284.146)">
        <line id="Line_1-74" data-name="Line 1" y1="204" x2="204" transform="translate(464.5 284.5)" fill="none" stroke="#fff" stroke-width="1"/>
      </g>
      <g transform="translate(349.854 -284.146)">
        <line id="Line_1-75" data-name="Line 1" y1="204" x2="204" transform="translate(464.5 284.5)" fill="none" stroke="#fff" stroke-width="1"/>
      </g>
      <g transform="translate(360.854 -284.146)">
        <line id="Line_1-76" data-name="Line 1" y1="204" x2="204" transform="translate(464.5 284.5)" fill="none" stroke="#fff" stroke-width="1"/>
      </g>
      <g transform="translate(371.854 -284.146)">
        <line id="Line_1-77" data-name="Line 1" y1="204" x2="204" transform="translate(464.5 284.5)" fill="none" stroke="#fff" stroke-width="1"/>
      </g>
      <g transform="translate(382.854 -284.146)">
        <line id="Line_1-78" data-name="Line 1" y1="204" x2="204" transform="translate(464.5 284.5)" fill="none" stroke="#fff" stroke-width="1"/>
      </g>
      <g transform="translate(393.854 -284.146)">
        <line id="Line_1-79" data-name="Line 1" y1="204" x2="204" transform="translate(464.5 284.5)" fill="none" stroke="#fff" stroke-width="1"/>
      </g>
      <g transform="translate(404.854 -284.146)">
        <line id="Line_1-80" data-name="Line 1" y1="204" x2="204" transform="translate(464.5 284.5)" fill="none" stroke="#fff" stroke-width="1"/>
      </g>
      <g transform="translate(415.854 -284.146)">
        <line id="Line_1-81" data-name="Line 1" y1="204" x2="204" transform="translate(464.5 284.5)" fill="none" stroke="#fff" stroke-width="1"/>
      </g>
      <g transform="translate(426.854 -284.146)">
        <line id="Line_1-82" data-name="Line 1" y1="204" x2="204" transform="translate(464.5 284.5)" fill="none" stroke="#fff" stroke-width="1"/>
      </g>
      <g transform="translate(437.854 -284.146)">
        <line id="Line_1-83" data-name="Line 1" y1="204" x2="204" transform="translate(464.5 284.5)" fill="none" stroke="#fff" stroke-width="1"/>
      </g>
      <g transform="translate(448.854 -284.146)">
        <line id="Line_1-84" data-name="Line 1" y1="204" x2="204" transform="translate(464.5 284.5)" fill="none" stroke="#fff" stroke-width="1"/>
      </g>
      <g transform="translate(459.854 -284.146)">
        <line id="Line_1-85" data-name="Line 1" y1="204" x2="204" transform="translate(464.5 284.5)" fill="none" stroke="#fff" stroke-width="1"/>
      </g>
      <g transform="translate(470.854 -284.146)">
        <line id="Line_1-86" data-name="Line 1" y1="204" x2="204" transform="translate(464.5 284.5)" fill="none" stroke="#fff" stroke-width="1"/>
      </g>
      <g transform="translate(481.854 -284.146)">
        <line id="Line_1-87" data-name="Line 1" y1="204" x2="204" transform="translate(464.5 284.5)" fill="none" stroke="#fff" stroke-width="1"/>
      </g>
      <g transform="translate(492.854 -284.146)">
        <line id="Line_1-88" data-name="Line 1" y1="204" x2="204" transform="translate(464.5 284.5)" fill="none" stroke="#fff" stroke-width="1"/>
      </g>
      <g transform="translate(503.854 -284.146)">
        <line id="Line_1-89" data-name="Line 1" y1="204" x2="204" transform="translate(464.5 284.5)" fill="none" stroke="#fff" stroke-width="1"/>
      </g>
      <g transform="translate(514.854 -284.146)">
        <line id="Line_1-90" data-name="Line 1" y1="204" x2="204" transform="translate(464.5 284.5)" fill="none" stroke="#fff" stroke-width="1"/>
      </g>
      <g transform="translate(525.854 -284.146)">
        <line id="Line_1-91" data-name="Line 1" y1="204" x2="204" transform="translate(464.5 284.5)" fill="none" stroke="#fff" stroke-width="1"/>
      </g>
      <g transform="translate(536.854 -284.146)">
        <line id="Line_1-92" data-name="Line 1" y1="204" x2="204" transform="translate(464.5 284.5)" fill="none" stroke="#fff" stroke-width="1"/>
      </g>
      <g transform="translate(547.854 -284.146)">
        <line id="Line_1-93" data-name="Line 1" y1="204" x2="204" transform="translate(464.5 284.5)" fill="none" stroke="#fff" stroke-width="1"/>
      </g>
      <g transform="translate(558.854 -284.146)">
        <line id="Line_1-94" data-name="Line 1" y1="204" x2="204" transform="translate(464.5 284.5)" fill="none" stroke="#fff" stroke-width="1"/>
      </g>
      <g transform="translate(569.854 -284.146)">
        <line id="Line_1-95" data-name="Line 1" y1="204" x2="204" transform="translate(464.5 284.5)" fill="none" stroke="#fff" stroke-width="1"/>
      </g>
      <g transform="translate(580.854 -284.146)">
        <line id="Line_1-96" data-name="Line 1" y1="204" x2="204" transform="translate(464.5 284.5)" fill="none" stroke="#fff" stroke-width="1"/>
      </g>
      <g transform="translate(591.854 -284.146)">
        <line id="Line_1-97" data-name="Line 1" y1="204" x2="204" transform="translate(464.5 284.5)" fill="none" stroke="#fff" stroke-width="1"/>
      </g>
      <g transform="translate(602.854 -284.146)">
        <line id="Line_1-98" data-name="Line 1" y1="204" x2="204" transform="translate(464.5 284.5)" fill="none" stroke="#fff" stroke-width="1"/>
      </g>
      <g transform="translate(613.854 -284.146)">
        <line id="Line_1-99" data-name="Line 1" y1="204" x2="204" transform="translate(464.5 284.5)" fill="none" stroke="#fff" stroke-width="1"/>
      </g>
      <g transform="translate(624.854 -284.146)">
        <line id="Line_1-100" data-name="Line 1" y1="204" x2="204" transform="translate(464.5 284.5)" fill="none" stroke="#fff" stroke-width="1"/>
      </g>
      <g transform="translate(635.854 -284.146)">
        <line id="Line_1-101" data-name="Line 1" y1="204" x2="204" transform="translate(464.5 284.5)" fill="none" stroke="#fff" stroke-width="1"/>
      </g>
      <g transform="translate(646.854 -284.146)">
        <line id="Line_1-102" data-name="Line 1" y1="204" x2="204" transform="translate(464.5 284.5)" fill="none" stroke="#fff" stroke-width="1"/>
      </g>
      <g transform="translate(657.854 -284.146)">
        <line id="Line_1-103" data-name="Line 1" y1="204" x2="204" transform="translate(464.5 284.5)" fill="none" stroke="#fff" stroke-width="1"/>
      </g>
      <g transform="translate(668.854 -284.146)">
        <line id="Line_1-104" data-name="Line 1" y1="204" x2="204" transform="translate(464.5 284.5)" fill="none" stroke="#fff" stroke-width="1"/>
      </g>
      <g transform="translate(679.854 -284.146)">
        <line id="Line_1-105" data-name="Line 1" y1="204" x2="204" transform="translate(464.5 284.5)" fill="none" stroke="#fff" stroke-width="1"/>
      </g>
      <g transform="translate(690.854 -284.146)">
        <line id="Line_1-106" data-name="Line 1" y1="204" x2="204" transform="translate(464.5 284.5)" fill="none" stroke="#fff" stroke-width="1"/>
      </g>
      <g transform="translate(701.854 -284.146)">
        <line id="Line_1-107" data-name="Line 1" y1="204" x2="204" transform="translate(464.5 284.5)" fill="none" stroke="#fff" stroke-width="1"/>
      </g>
      <g transform="translate(712.854 -284.146)">
        <line id="Line_1-108" data-name="Line 1" y1="204" x2="204" transform="translate(464.5 284.5)" fill="none" stroke="#fff" stroke-width="1"/>
      </g>
      <g transform="translate(723.854 -284.146)">
        <line id="Line_1-109" data-name="Line 1" y1="204" x2="204" transform="translate(464.5 284.5)" fill="none" stroke="#fff" stroke-width="1"/>
      </g>
      <g transform="translate(734.854 -284.146)">
        <line id="Line_1-110" data-name="Line 1" y1="204" x2="204" transform="translate(464.5 284.5)" fill="none" stroke="#fff" stroke-width="1"/>
      </g>
      <g transform="translate(745.854 -284.146)">
        <line id="Line_1-111" data-name="Line 1" y1="204" x2="204" transform="translate(464.5 284.5)" fill="none" stroke="#fff" stroke-width="1"/>
      </g>
      <g transform="translate(756.854 -284.146)">
        <line id="Line_1-112" data-name="Line 1" y1="204" x2="204" transform="translate(464.5 284.5)" fill="none" stroke="#fff" stroke-width="1"/>
      </g>
      <g transform="translate(767.854 -284.146)">
        <line id="Line_1-113" data-name="Line 1" y1="204" x2="204" transform="translate(464.5 284.5)" fill="none" stroke="#fff" stroke-width="1"/>
      </g>
      <g transform="translate(778.854 -284.146)">
        <line id="Line_1-114" data-name="Line 1" y1="204" x2="204" transform="translate(464.5 284.5)" fill="none" stroke="#fff" stroke-width="1"/>
      </g>
      <g transform="translate(789.854 -284.146)">
        <line id="Line_1-115" data-name="Line 1" y1="204" x2="204" transform="translate(464.5 284.5)" fill="none" stroke="#fff" stroke-width="1"/>
      </g>
      <g transform="translate(-464.146 -59.146)">
        <line id="Line_1-116" data-name="Line 1" y1="204" x2="204" transform="translate(464.5 284.5)" fill="none" stroke="#fff" stroke-width="1"/>
      </g>
      <g transform="translate(-453.146 -59.146)">
        <line id="Line_1-117" data-name="Line 1" y1="204" x2="204" transform="translate(464.5 284.5)" fill="none" stroke="#fff" stroke-width="1"/>
      </g>
      <g transform="translate(-442.146 -59.146)">
        <line id="Line_1-118" data-name="Line 1" y1="204" x2="204" transform="translate(464.5 284.5)" fill="none" stroke="#fff" stroke-width="1"/>
      </g>
      <g transform="translate(-431.146 -59.146)">
        <line id="Line_1-119" data-name="Line 1" y1="204" x2="204" transform="translate(464.5 284.5)" fill="none" stroke="#fff" stroke-width="1"/>
      </g>
      <g transform="translate(-420.146 -59.146)">
        <line id="Line_1-120" data-name="Line 1" y1="204" x2="204" transform="translate(464.5 284.5)" fill="none" stroke="#fff" stroke-width="1"/>
      </g>
      <g transform="translate(-409.146 -59.146)">
        <line id="Line_1-121" data-name="Line 1" y1="204" x2="204" transform="translate(464.5 284.5)" fill="none" stroke="#fff" stroke-width="1"/>
      </g>
      <g transform="translate(-398.146 -59.146)">
        <line id="Line_1-122" data-name="Line 1" y1="204" x2="204" transform="translate(464.5 284.5)" fill="none" stroke="#fff" stroke-width="1"/>
      </g>
      <g transform="translate(-387.146 -59.146)">
        <line id="Line_1-123" data-name="Line 1" y1="204" x2="204" transform="translate(464.5 284.5)" fill="none" stroke="#fff" stroke-width="1"/>
      </g>
      <g transform="translate(-376.146 -59.146)">
        <line id="Line_1-124" data-name="Line 1" y1="204" x2="204" transform="translate(464.5 284.5)" fill="none" stroke="#fff" stroke-width="1"/>
      </g>
      <g transform="translate(-365.146 -59.146)">
        <line id="Line_1-125" data-name="Line 1" y1="204" x2="204" transform="translate(464.5 284.5)" fill="none" stroke="#fff" stroke-width="1"/>
      </g>
      <g transform="translate(-354.146 -59.146)">
        <line id="Line_1-126" data-name="Line 1" y1="204" x2="204" transform="translate(464.5 284.5)" fill="none" stroke="#fff" stroke-width="1"/>
      </g>
      <g transform="translate(-343.146 -59.146)">
        <line id="Line_1-127" data-name="Line 1" y1="204" x2="204" transform="translate(464.5 284.5)" fill="none" stroke="#fff" stroke-width="1"/>
      </g>
      <g transform="translate(-332.146 -59.146)">
        <line id="Line_1-128" data-name="Line 1" y1="204" x2="204" transform="translate(464.5 284.5)" fill="none" stroke="#fff" stroke-width="1"/>
      </g>
      <g transform="translate(-321.146 -59.146)">
        <line id="Line_1-129" data-name="Line 1" y1="204" x2="204" transform="translate(464.5 284.5)" fill="none" stroke="#fff" stroke-width="1"/>
      </g>
      <g transform="translate(-310.146 -59.146)">
        <line id="Line_1-130" data-name="Line 1" y1="204" x2="204" transform="translate(464.5 284.5)" fill="none" stroke="#fff" stroke-width="1"/>
      </g>
      <g transform="translate(-299.146 -59.146)">
        <line id="Line_1-131" data-name="Line 1" y1="204" x2="204" transform="translate(464.5 284.5)" fill="none" stroke="#fff" stroke-width="1"/>
      </g>
      <g transform="translate(-288.146 -59.146)">
        <line id="Line_1-132" data-name="Line 1" y1="204" x2="204" transform="translate(464.5 284.5)" fill="none" stroke="#fff" stroke-width="1"/>
      </g>
      <g transform="translate(-277.146 -59.146)">
        <line id="Line_1-133" data-name="Line 1" y1="204" x2="204" transform="translate(464.5 284.5)" fill="none" stroke="#fff" stroke-width="1"/>
      </g>
      <g transform="translate(-266.146 -59.146)">
        <line id="Line_1-134" data-name="Line 1" y1="204" x2="204" transform="translate(464.5 284.5)" fill="none" stroke="#fff" stroke-width="1"/>
      </g>
      <g transform="translate(-255.146 -59.146)">
        <line id="Line_1-135" data-name="Line 1" y1="204" x2="204" transform="translate(464.5 284.5)" fill="none" stroke="#fff" stroke-width="1"/>
      </g>
      <g transform="translate(-244.146 -59.146)">
        <line id="Line_1-136" data-name="Line 1" y1="204" x2="204" transform="translate(464.5 284.5)" fill="none" stroke="#fff" stroke-width="1"/>
      </g>
      <g transform="translate(-233.146 -59.146)">
        <line id="Line_1-137" data-name="Line 1" y1="204" x2="204" transform="translate(464.5 284.5)" fill="none" stroke="#fff" stroke-width="1"/>
      </g>
      <g transform="translate(-222.146 -59.146)">
        <line id="Line_1-138" data-name="Line 1" y1="204" x2="204" transform="translate(464.5 284.5)" fill="none" stroke="#fff" stroke-width="1"/>
      </g>
      <g transform="translate(-211.146 -59.146)">
        <line id="Line_1-139" data-name="Line 1" y1="204" x2="204" transform="translate(464.5 284.5)" fill="none" stroke="#fff" stroke-width="1"/>
      </g>
      <g transform="translate(-200.146 -59.146)">
        <line id="Line_1-140" data-name="Line 1" y1="204" x2="204" transform="translate(464.5 284.5)" fill="none" stroke="#fff" stroke-width="1"/>
      </g>
      <g transform="translate(-189.146 -59.146)">
        <line id="Line_1-141" data-name="Line 1" y1="204" x2="204" transform="translate(464.5 284.5)" fill="none" stroke="#fff" stroke-width="1"/>
      </g>
      <g transform="translate(-178.146 -59.146)">
        <line id="Line_1-142" data-name="Line 1" y1="204" x2="204" transform="translate(464.5 284.5)" fill="none" stroke="#fff" stroke-width="1"/>
      </g>
      <g transform="translate(-167.146 -59.146)">
        <line id="Line_1-143" data-name="Line 1" y1="204" x2="204" transform="translate(464.5 284.5)" fill="none" stroke="#fff" stroke-width="1"/>
      </g>
      <g transform="translate(-156.146 -59.146)">
        <line id="Line_1-144" data-name="Line 1" y1="204" x2="204" transform="translate(464.5 284.5)" fill="none" stroke="#fff" stroke-width="1"/>
      </g>
      <g transform="translate(-145.146 -59.146)">
        <line id="Line_1-145" data-name="Line 1" y1="204" x2="204" transform="translate(464.5 284.5)" fill="none" stroke="#fff" stroke-width="1"/>
      </g>
      <g transform="translate(-134.146 -59.146)">
        <line id="Line_1-146" data-name="Line 1" y1="204" x2="204" transform="translate(464.5 284.5)" fill="none" stroke="#fff" stroke-width="1"/>
      </g>
      <g transform="translate(-123.146 -59.146)">
        <line id="Line_1-147" data-name="Line 1" y1="204" x2="204" transform="translate(464.5 284.5)" fill="none" stroke="#fff" stroke-width="1"/>
      </g>
      <g transform="translate(-112.146 -59.146)">
        <line id="Line_1-148" data-name="Line 1" y1="204" x2="204" transform="translate(464.5 284.5)" fill="none" stroke="#fff" stroke-width="1"/>
      </g>
      <g transform="translate(-101.146 -59.146)">
        <line id="Line_1-149" data-name="Line 1" y1="204" x2="204" transform="translate(464.5 284.5)" fill="none" stroke="#fff" stroke-width="1"/>
      </g>
      <g transform="translate(-90.146 -59.146)">
        <line id="Line_1-150" data-name="Line 1" y1="204" x2="204" transform="translate(464.5 284.5)" fill="none" stroke="#fff" stroke-width="1"/>
      </g>
      <g transform="translate(-79.146 -59.146)">
        <line id="Line_1-151" data-name="Line 1" y1="204" x2="204" transform="translate(464.5 284.5)" fill="none" stroke="#fff" stroke-width="1"/>
      </g>
      <g transform="translate(-68.146 -59.146)">
        <line id="Line_1-152" data-name="Line 1" y1="204" x2="204" transform="translate(464.5 284.5)" fill="none" stroke="#fff" stroke-width="1"/>
      </g>
      <g transform="translate(-57.146 -59.146)">
        <line id="Line_1-153" data-name="Line 1" y1="204" x2="204" transform="translate(464.5 284.5)" fill="none" stroke="#fff" stroke-width="1"/>
      </g>
      <g transform="translate(-46.146 -59.146)">
        <line id="Line_1-154" data-name="Line 1" y1="204" x2="204" transform="translate(464.5 284.5)" fill="none" stroke="#fff" stroke-width="1"/>
      </g>
      <g transform="translate(-35.146 -59.146)">
        <line id="Line_1-155" data-name="Line 1" y1="204" x2="204" transform="translate(464.5 284.5)" fill="none" stroke="#fff" stroke-width="1"/>
      </g>
      <g transform="translate(-24.146 -59.146)">
        <line id="Line_1-156" data-name="Line 1" y1="204" x2="204" transform="translate(464.5 284.5)" fill="none" stroke="#fff" stroke-width="1"/>
      </g>
      <g transform="translate(-13.146 -59.146)">
        <line id="Line_1-157" data-name="Line 1" y1="204" x2="204" transform="translate(464.5 284.5)" fill="none" stroke="#fff" stroke-width="1"/>
      </g>
      <g transform="translate(-2.146 -59.146)">
        <line id="Line_1-158" data-name="Line 1" y1="204" x2="204" transform="translate(464.5 284.5)" fill="none" stroke="#fff" stroke-width="1"/>
      </g>
      <g transform="translate(8.854 -59.146)">
        <line id="Line_1-159" data-name="Line 1" y1="204" x2="204" transform="translate(464.5 284.5)" fill="none" stroke="#fff" stroke-width="1"/>
      </g>
      <g transform="translate(19.854 -59.146)">
        <line id="Line_1-160" data-name="Line 1" y1="204" x2="204" transform="translate(464.5 284.5)" fill="none" stroke="#fff" stroke-width="1"/>
      </g>
      <g transform="translate(30.854 -59.146)">
        <line id="Line_1-161" data-name="Line 1" y1="204" x2="204" transform="translate(464.5 284.5)" fill="none" stroke="#fff" stroke-width="1"/>
      </g>
      <g transform="translate(41.854 -59.146)">
        <line id="Line_1-162" data-name="Line 1" y1="204" x2="204" transform="translate(464.5 284.5)" fill="none" stroke="#fff" stroke-width="1"/>
      </g>
      <g transform="translate(52.854 -59.146)">
        <line id="Line_1-163" data-name="Line 1" y1="204" x2="204" transform="translate(464.5 284.5)" fill="none" stroke="#fff" stroke-width="1"/>
      </g>
      <g transform="translate(63.854 -59.146)">
        <line id="Line_1-164" data-name="Line 1" y1="204" x2="204" transform="translate(464.5 284.5)" fill="none" stroke="#fff" stroke-width="1"/>
      </g>
      <g transform="translate(74.854 -59.146)">
        <line id="Line_1-165" data-name="Line 1" y1="204" x2="204" transform="translate(464.5 284.5)" fill="none" stroke="#fff" stroke-width="1"/>
      </g>
      <g transform="translate(85.854 -59.146)">
        <line id="Line_1-166" data-name="Line 1" y1="204" x2="204" transform="translate(464.5 284.5)" fill="none" stroke="#fff" stroke-width="1"/>
      </g>
      <g transform="translate(96.854 -59.146)">
        <line id="Line_1-167" data-name="Line 1" y1="204" x2="204" transform="translate(464.5 284.5)" fill="none" stroke="#fff" stroke-width="1"/>
      </g>
      <g transform="translate(107.854 -59.146)">
        <line id="Line_1-168" data-name="Line 1" y1="204" x2="204" transform="translate(464.5 284.5)" fill="none" stroke="#fff" stroke-width="1"/>
      </g>
      <g transform="translate(118.854 -59.146)">
        <line id="Line_1-169" data-name="Line 1" y1="204" x2="204" transform="translate(464.5 284.5)" fill="none" stroke="#fff" stroke-width="1"/>
      </g>
      <g transform="translate(129.854 -59.146)">
        <line id="Line_1-170" data-name="Line 1" y1="204" x2="204" transform="translate(464.5 284.5)" fill="none" stroke="#fff" stroke-width="1"/>
      </g>
      <g transform="translate(140.854 -59.146)">
        <line id="Line_1-171" data-name="Line 1" y1="204" x2="204" transform="translate(464.5 284.5)" fill="none" stroke="#fff" stroke-width="1"/>
      </g>
      <g transform="translate(151.854 -59.146)">
        <line id="Line_1-172" data-name="Line 1" y1="204" x2="204" transform="translate(464.5 284.5)" fill="none" stroke="#fff" stroke-width="1"/>
      </g>
      <g transform="translate(162.854 -59.146)">
        <line id="Line_1-173" data-name="Line 1" y1="204" x2="204" transform="translate(464.5 284.5)" fill="none" stroke="#fff" stroke-width="1"/>
      </g>
      <g transform="translate(173.854 -59.146)">
        <line id="Line_1-174" data-name="Line 1" y1="204" x2="204" transform="translate(464.5 284.5)" fill="none" stroke="#fff" stroke-width="1"/>
      </g>
      <g transform="translate(184.854 -59.146)">
        <line id="Line_1-175" data-name="Line 1" y1="204" x2="204" transform="translate(464.5 284.5)" fill="none" stroke="#fff" stroke-width="1"/>
      </g>
      <g transform="translate(195.854 -59.146)">
        <line id="Line_1-176" data-name="Line 1" y1="204" x2="204" transform="translate(464.5 284.5)" fill="none" stroke="#fff" stroke-width="1"/>
      </g>
      <g transform="translate(206.854 -59.146)">
        <line id="Line_1-177" data-name="Line 1" y1="204" x2="204" transform="translate(464.5 284.5)" fill="none" stroke="#fff" stroke-width="1"/>
      </g>
      <g transform="translate(217.854 -59.146)">
        <line id="Line_1-178" data-name="Line 1" y1="204" x2="204" transform="translate(464.5 284.5)" fill="none" stroke="#fff" stroke-width="1"/>
      </g>
      <g transform="translate(228.854 -59.146)">
        <line id="Line_1-179" data-name="Line 1" y1="204" x2="204" transform="translate(464.5 284.5)" fill="none" stroke="#fff" stroke-width="1"/>
      </g>
      <g transform="translate(239.854 -59.146)">
        <line id="Line_1-180" data-name="Line 1" y1="204" x2="204" transform="translate(464.5 284.5)" fill="none" stroke="#fff" stroke-width="1"/>
      </g>
      <g transform="translate(250.854 -59.146)">
        <line id="Line_1-181" data-name="Line 1" y1="204" x2="204" transform="translate(464.5 284.5)" fill="none" stroke="#fff" stroke-width="1"/>
      </g>
      <g transform="translate(261.854 -59.146)">
        <line id="Line_1-182" data-name="Line 1" y1="204" x2="204" transform="translate(464.5 284.5)" fill="none" stroke="#fff" stroke-width="1"/>
      </g>
      <g transform="translate(272.854 -59.146)">
        <line id="Line_1-183" data-name="Line 1" y1="204" x2="204" transform="translate(464.5 284.5)" fill="none" stroke="#fff" stroke-width="1"/>
      </g>
      <g transform="translate(283.854 -59.146)">
        <line id="Line_1-184" data-name="Line 1" y1="204" x2="204" transform="translate(464.5 284.5)" fill="none" stroke="#fff" stroke-width="1"/>
      </g>
      <g transform="translate(294.854 -59.146)">
        <line id="Line_1-185" data-name="Line 1" y1="204" x2="204" transform="translate(464.5 284.5)" fill="none" stroke="#fff" stroke-width="1"/>
      </g>
      <g transform="translate(305.854 -59.146)">
        <line id="Line_1-186" data-name="Line 1" y1="204" x2="204" transform="translate(464.5 284.5)" fill="none" stroke="#fff" stroke-width="1"/>
      </g>
      <g transform="translate(316.854 -59.146)">
        <line id="Line_1-187" data-name="Line 1" y1="204" x2="204" transform="translate(464.5 284.5)" fill="none" stroke="#fff" stroke-width="1"/>
      </g>
      <g transform="translate(327.854 -59.146)">
        <line id="Line_1-188" data-name="Line 1" y1="204" x2="204" transform="translate(464.5 284.5)" fill="none" stroke="#fff" stroke-width="1"/>
      </g>
      <g transform="translate(338.854 -59.146)">
        <line id="Line_1-189" data-name="Line 1" y1="204" x2="204" transform="translate(464.5 284.5)" fill="none" stroke="#fff" stroke-width="1"/>
      </g>
      <g transform="translate(349.854 -59.146)">
        <line id="Line_1-190" data-name="Line 1" y1="204" x2="204" transform="translate(464.5 284.5)" fill="none" stroke="#fff" stroke-width="1"/>
      </g>
      <g transform="translate(360.854 -59.146)">
        <line id="Line_1-191" data-name="Line 1" y1="204" x2="204" transform="translate(464.5 284.5)" fill="none" stroke="#fff" stroke-width="1"/>
      </g>
      <g transform="translate(371.854 -59.146)">
        <line id="Line_1-192" data-name="Line 1" y1="204" x2="204" transform="translate(464.5 284.5)" fill="none" stroke="#fff" stroke-width="1"/>
      </g>
      <g transform="translate(382.854 -59.146)">
        <line id="Line_1-193" data-name="Line 1" y1="204" x2="204" transform="translate(464.5 284.5)" fill="none" stroke="#fff" stroke-width="1"/>
      </g>
      <g transform="translate(393.854 -59.146)">
        <line id="Line_1-194" data-name="Line 1" y1="204" x2="204" transform="translate(464.5 284.5)" fill="none" stroke="#fff" stroke-width="1"/>
      </g>
      <g transform="translate(404.854 -59.146)">
        <line id="Line_1-195" data-name="Line 1" y1="204" x2="204" transform="translate(464.5 284.5)" fill="none" stroke="#fff" stroke-width="1"/>
      </g>
      <g transform="translate(415.854 -59.146)">
        <line id="Line_1-196" data-name="Line 1" y1="204" x2="204" transform="translate(464.5 284.5)" fill="none" stroke="#fff" stroke-width="1"/>
      </g>
      <g transform="translate(426.854 -59.146)">
        <line id="Line_1-197" data-name="Line 1" y1="204" x2="204" transform="translate(464.5 284.5)" fill="none" stroke="#fff" stroke-width="1"/>
      </g>
      <g transform="translate(437.854 -59.146)">
        <line id="Line_1-198" data-name="Line 1" y1="204" x2="204" transform="translate(464.5 284.5)" fill="none" stroke="#fff" stroke-width="1"/>
      </g>
      <g transform="translate(448.854 -59.146)">
        <line id="Line_1-199" data-name="Line 1" y1="204" x2="204" transform="translate(464.5 284.5)" fill="none" stroke="#fff" stroke-width="1"/>
      </g>
      <g transform="translate(459.854 -59.146)">
        <line id="Line_1-200" data-name="Line 1" y1="204" x2="204" transform="translate(464.5 284.5)" fill="none" stroke="#fff" stroke-width="1"/>
      </g>
      <g transform="translate(470.854 -59.146)">
        <line id="Line_1-201" data-name="Line 1" y1="204" x2="204" transform="translate(464.5 284.5)" fill="none" stroke="#fff" stroke-width="1"/>
      </g>
      <g transform="translate(481.854 -59.146)">
        <line id="Line_1-202" data-name="Line 1" y1="204" x2="204" transform="translate(464.5 284.5)" fill="none" stroke="#fff" stroke-width="1"/>
      </g>
      <g transform="translate(492.854 -59.146)">
        <line id="Line_1-203" data-name="Line 1" y1="204" x2="204" transform="translate(464.5 284.5)" fill="none" stroke="#fff" stroke-width="1"/>
      </g>
      <g transform="translate(503.854 -59.146)">
        <line id="Line_1-204" data-name="Line 1" y1="204" x2="204" transform="translate(464.5 284.5)" fill="none" stroke="#fff" stroke-width="1"/>
      </g>
      <g transform="translate(514.854 -59.146)">
        <line id="Line_1-205" data-name="Line 1" y1="204" x2="204" transform="translate(464.5 284.5)" fill="none" stroke="#fff" stroke-width="1"/>
      </g>
      <g transform="translate(525.854 -59.146)">
        <line id="Line_1-206" data-name="Line 1" y1="204" x2="204" transform="translate(464.5 284.5)" fill="none" stroke="#fff" stroke-width="1"/>
      </g>
      <g transform="translate(536.854 -59.146)">
        <line id="Line_1-207" data-name="Line 1" y1="204" x2="204" transform="translate(464.5 284.5)" fill="none" stroke="#fff" stroke-width="1"/>
      </g>
      <g transform="translate(547.854 -59.146)">
        <line id="Line_1-208" data-name="Line 1" y1="204" x2="204" transform="translate(464.5 284.5)" fill="none" stroke="#fff" stroke-width="1"/>
      </g>
      <g transform="translate(558.854 -59.146)">
        <line id="Line_1-209" data-name="Line 1" y1="204" x2="204" transform="translate(464.5 284.5)" fill="none" stroke="#fff" stroke-width="1"/>
      </g>
      <g transform="translate(569.854 -59.146)">
        <line id="Line_1-210" data-name="Line 1" y1="204" x2="204" transform="translate(464.5 284.5)" fill="none" stroke="#fff" stroke-width="1"/>
      </g>
      <g transform="translate(580.854 -59.146)">
        <line id="Line_1-211" data-name="Line 1" y1="204" x2="204" transform="translate(464.5 284.5)" fill="none" stroke="#fff" stroke-width="1"/>
      </g>
      <g transform="translate(591.854 -59.146)">
        <line id="Line_1-212" data-name="Line 1" y1="204" x2="204" transform="translate(464.5 284.5)" fill="none" stroke="#fff" stroke-width="1"/>
      </g>
      <g transform="translate(602.854 -59.146)">
        <line id="Line_1-213" data-name="Line 1" y1="204" x2="204" transform="translate(464.5 284.5)" fill="none" stroke="#fff" stroke-width="1"/>
      </g>
      <g transform="translate(613.854 -59.146)">
        <line id="Line_1-214" data-name="Line 1" y1="204" x2="204" transform="translate(464.5 284.5)" fill="none" stroke="#fff" stroke-width="1"/>
      </g>
      <g transform="translate(624.854 -59.146)">
        <line id="Line_1-215" data-name="Line 1" y1="204" x2="204" transform="translate(464.5 284.5)" fill="none" stroke="#fff" stroke-width="1"/>
      </g>
      <g transform="translate(635.854 -59.146)">
        <line id="Line_1-216" data-name="Line 1" y1="204" x2="204" transform="translate(464.5 284.5)" fill="none" stroke="#fff" stroke-width="1"/>
      </g>
      <g transform="translate(646.854 -59.146)">
        <line id="Line_1-217" data-name="Line 1" y1="204" x2="204" transform="translate(464.5 284.5)" fill="none" stroke="#fff" stroke-width="1"/>
      </g>
      <g transform="translate(657.854 -59.146)">
        <line id="Line_1-218" data-name="Line 1" y1="204" x2="204" transform="translate(464.5 284.5)" fill="none" stroke="#fff" stroke-width="1"/>
      </g>
      <g transform="translate(668.854 -59.146)">
        <line id="Line_1-219" data-name="Line 1" y1="204" x2="204" transform="translate(464.5 284.5)" fill="none" stroke="#fff" stroke-width="1"/>
      </g>
      <g transform="translate(679.854 -59.146)">
        <line id="Line_1-220" data-name="Line 1" y1="204" x2="204" transform="translate(464.5 284.5)" fill="none" stroke="#fff" stroke-width="1"/>
      </g>
      <g transform="translate(690.854 -59.146)">
        <line id="Line_1-221" data-name="Line 1" y1="204" x2="204" transform="translate(464.5 284.5)" fill="none" stroke="#fff" stroke-width="1"/>
      </g>
      <g transform="translate(701.854 -59.146)">
        <line id="Line_1-222" data-name="Line 1" y1="204" x2="204" transform="translate(464.5 284.5)" fill="none" stroke="#fff" stroke-width="1"/>
      </g>
      <g transform="translate(712.854 -59.146)">
        <line id="Line_1-223" data-name="Line 1" y1="204" x2="204" transform="translate(464.5 284.5)" fill="none" stroke="#fff" stroke-width="1"/>
      </g>
      <g transform="translate(723.854 -59.146)">
        <line id="Line_1-224" data-name="Line 1" y1="204" x2="204" transform="translate(464.5 284.5)" fill="none" stroke="#fff" stroke-width="1"/>
      </g>
      <g transform="translate(734.854 -59.146)">
        <line id="Line_1-225" data-name="Line 1" y1="204" x2="204" transform="translate(464.5 284.5)" fill="none" stroke="#fff" stroke-width="1"/>
      </g>
      <g transform="translate(745.854 -59.146)">
        <line id="Line_1-226" data-name="Line 1" y1="204" x2="204" transform="translate(464.5 284.5)" fill="none" stroke="#fff" stroke-width="1"/>
      </g>
      <g transform="translate(756.854 -59.146)">
        <line id="Line_1-227" data-name="Line 1" y1="204" x2="204" transform="translate(464.5 284.5)" fill="none" stroke="#fff" stroke-width="1"/>
      </g>
      <g transform="translate(767.854 -59.146)">
        <line id="Line_1-228" data-name="Line 1" y1="204" x2="204" transform="translate(464.5 284.5)" fill="none" stroke="#fff" stroke-width="1"/>
      </g>
      <g transform="translate(778.854 -59.146)">
        <line id="Line_1-229" data-name="Line 1" y1="204" x2="204" transform="translate(464.5 284.5)" fill="none" stroke="#fff" stroke-width="1"/>
      </g>
      <g transform="translate(789.854 -59.146)">
        <line id="Line_1-230" data-name="Line 1" y1="204" x2="204" transform="translate(464.5 284.5)" fill="none" stroke="#fff" stroke-width="1"/>
      </g>
    </g>
  </g>
</svg>
