<svg id="Capa_1" fill="currentColor" viewBox="0 0 512 512" xmlns="http://www.w3.org/2000/svg"><g><path d="m293.46 268.812c-10.286-8.255-23.322-13.217-37.507-13.217-13.82 0-26.552 4.706-36.711 12.581-.282-1.867-.428-3.767-.428-5.69 0-10.044 3.912-19.487 11.014-26.589 3.905-3.905 3.906-10.237 0-14.142-3.905-3.906-10.237-3.905-14.142 0-10.88 10.88-16.872 25.345-16.872 40.731 0 8.771 1.954 17.24 5.644 24.92-27.485 2.068-50.35 23.73-52.997 52.07-.514 5.499 3.527 10.373 9.026 10.887 5.501.519 10.373-3.527 10.887-9.026 1.403-15.015 11.504-27.152 24.849-31.92-.214 2.05-.326 4.129-.326 6.235 0 25.71 16.248 47.677 39.009 56.222-7.617 7.34-18.257 11.459-29.59 10.401-5.5-.518-10.373 3.527-10.887 9.026s3.527 10.373 9.026 10.887c1.814.169 3.615.252 5.402.252 19.47-.001 37.083-9.87 47.559-25.205 10.475 15.337 28.087 25.206 47.56 25.206 1.778 0 3.575-.083 5.379-.25 5.499-.512 9.542-5.384 9.031-10.883-.512-5.5-5.392-9.543-10.883-9.031-11.465 1.069-22.217-3.158-29.847-10.658 22.415-8.718 38.351-30.505 38.351-55.966 0-2.223-.134-4.415-.371-6.576 13.832 4.514 24.393 16.891 25.824 32.275.512 5.5 5.39 9.542 10.883 9.031 5.499-.512 9.542-5.384 9.031-10.883-2.638-28.36-25.529-50.04-53.033-52.095 10.259-21.424 6.534-47.92-11.193-65.648-3.905-3.905-10.237-3.905-14.143 0-3.905 3.905-3.905 10.237 0 14.143 8.944 8.939 12.422 21.301 10.455 32.912zm-37.507 6.783c11.142 0 21.232 4.577 28.5 11.945-.466.521-.946 1.035-1.447 1.536-7.102 7.102-16.545 11.014-26.589 11.014s-19.487-3.912-26.589-11.014c-.655-.655-1.274-1.337-1.875-2.031 7.228-7.077 17.111-11.45 28-11.45zm-40.056 40.055c0-2.596.257-5.132.731-7.591 18.404 3.897 31.418 21.097 29.626 40.273-.189 2.024-.541 3.993-1.033 5.902-16.89-4.704-29.324-20.214-29.324-38.584zm51.649 38.339c-.46-1.836-.786-3.729-.967-5.671-1.755-18.859 10.809-35.803 28.734-40.059.449 2.397.695 4.866.695 7.392 0 18.056-12.011 33.353-28.462 38.338z"/><path d="m503.58 402.63-45.47-80.43c-1.77-3.13-5.11-5.08-8.71-5.08-1.71 0-3.41.45-4.91 1.3-2.33 1.31-4 3.45-4.72 6.03-.71 2.57-.38 5.27.94 7.59l45.8 81.01c3.63 5.81 5.48 12.1 5.49 18.71.01 9.11-3.68 18.67-10.13 25.35-6.87 7.1-15.84 10.39-25.92 11.39h-399.9c-10.08-1-19.05-4.29-25.93-11.39-6.44-6.68-10.13-15.99-10.12-25.1.01-6.61 1.86-13.025 5.5-18.835l200.06-353.973c6.71-10.52 17.8-16.621 30.44-16.671 12.64.05 23.73 6.104 30.44 16.624l109.98 194.552c1.77 3.13 5.11 5.076 8.71 5.076 1.71 0 3.41-.452 4.91-1.302 2.33-1.31 4-3.461 4.72-6.031.71-2.57.38-5.271-.93-7.601l-110.33-195.149c-5.19-8.28-12.44-14.56-20.97-19.11-8.09-4.31-17.21-6.09-26.39-6.09h-.14-.15c-9.17 0-18.29 1.78-26.38 6.09-8.53 4.55-15.78 11.08-20.97 19.36l-200.08 353.805c-5.52 8.86-8.43 18.877-8.42 29.067.01 7.2 1.4 14.229 4.15 20.939 2.71 6.61 6.6 12.574 11.56 17.734 5.06 5.27 11.03 9.932 17.75 12.862 7.08 3.09 14.65 5.143 22.5 5.143h400.08c7.85 0 15.42-2.07 22.5-5.15 6.72-2.94 12.69-7.35 17.74-12.62 4.97-5.16 8.86-11.265 11.57-17.875 2.75-6.71 4.14-13.833 4.15-21.033.01-10.19-2.9-20.332-8.42-29.192z"/><path d="m256.006 67.5c-3.603 0-6.927 1.938-8.702 5.073l-201.006 355c-1.753 3.096-1.729 7.39.063 10.463 1.792 3.074 5.082 5.464 8.639 5.464h402c3.558 0 6.847-2.39 8.639-5.463 1.792-3.074 1.816-7.118.063-10.213l-200.994-355.126c-1.775-3.135-5.099-5.198-8.702-5.198zm-183.852 356 183.852-324.704 183.841 324.704z"/><circle cx="427.264" cy="287.95" r="10"/></g></svg>