<svg fill="currentColor" version="1.1" id="Capa_1" xmlns="http://www.w3.org/2000/svg" xmlns:xlink="http://www.w3.org/1999/xlink" x="0px" y="0px"
	 viewBox="0 0 512 512"  xml:space="preserve">
<g>
	<g>
		<path d="M183.122,397.617H95.973c-4.512,0-8.17,3.658-8.17,8.17s3.658,8.17,8.17,8.17h87.149c4.512,0,8.17-3.658,8.17-8.17
			S187.634,397.617,183.122,397.617z"/>
	</g>
</g>
<g>
	<g>
		<path d="M183.122,364.936H95.973c-4.512,0-8.17,3.658-8.17,8.17s3.658,8.17,8.17,8.17h87.149c4.512,0,8.17-3.658,8.17-8.17
			S187.634,364.936,183.122,364.936z"/>
	</g>
</g>
<g>
	<g>
		<path d="M183.122,332.255H95.973c-4.512,0-8.17,3.658-8.17,8.17s3.658,8.17,8.17,8.17h87.149c4.512,0,8.17-3.658,8.17-8.17
			S187.634,332.255,183.122,332.255z"/>
	</g>
</g>
<g>
	<g>
		<path d="M186.619,160.389c-0.382-0.182-0.779-0.338-1.192-0.46c-3.424-1.319-6.916-2.499-10.475-3.524v-29.494
			c0-4.512-3.658-8.17-8.17-8.17h-2.723v-94.23C164.058,10.995,153.063,0,139.547,0c-13.516,0-24.511,10.995-24.511,24.511v94.23
			h-2.723c-4.512,0-8.17,3.658-8.17,8.17v29.494c-3.558,1.025-7.05,2.205-10.475,3.524c-0.413,0.121-0.809,0.278-1.192,0.46
			c-47.356,18.793-80.929,65.065-80.929,119.032v202.621c0,16.519,13.438,29.957,29.957,29.957
			c16.519,0,29.957-13.438,29.957-29.957v-54.468c0-16.519-13.438-29.957-29.957-29.957c-4.902,0-9.529,1.191-13.617,3.288V279.421
			c0-42.907,24.33-80.231,59.915-98.922v22.666c0,16.519,13.438,29.957,29.957,29.957h43.574c16.519,0,29.957-13.438,29.957-29.957
			V180.5c35.585,18.689,59.915,56.015,59.915,98.922v121.483c-4.088-2.096-8.715-3.288-13.617-3.288
			c-16.519,0-29.957,13.438-29.957,29.957v35.404H95.973c-4.512,0-8.17,3.658-8.17,8.17s3.658,8.17,8.17,8.17h111.66v2.723
			c0,16.519,13.438,29.957,29.957,29.957c16.519,0,29.957-13.438,29.957-29.957V279.421
			C267.547,225.454,233.974,179.182,186.619,160.389z M41.505,413.957c7.509,0,13.617,6.108,13.617,13.617v54.468
			c0,7.509-6.108,13.617-13.617,13.617s-13.617-6.108-13.617-13.617v-54.468C27.888,420.065,33.997,413.957,41.505,413.957z
			 M131.377,24.511c0-4.506,3.665-8.17,8.17-8.17s8.17,3.665,8.17,8.17v94.23h-16.34V24.511z M120.483,135.081h38.128v17.761
			c-6.221-0.934-12.586-1.421-19.064-1.421s-12.842,0.488-19.064,1.421V135.081z M174.951,203.166
			c0,7.509-6.108,13.617-13.617,13.617H117.76c-7.509,0-13.617-6.108-13.617-13.617v-29.648c11.13-3.731,23.035-5.756,35.404-5.756
			s24.274,2.025,35.404,5.756V203.166z M251.207,482.043c0,7.509-6.108,13.617-13.617,13.617s-13.617-6.108-13.617-13.617v-54.468
			c0-7.509,6.108-13.617,13.617-13.617s13.617,6.108,13.617,13.617V482.043z"/>
	</g>
</g>
<g>
	<g>
		<path d="M492.283,462.979h-32.85c-3.619-17.759-18.798-31.355-37.305-32.58V159.591c0-3.556-2.276-6.572-5.447-7.695V99.132
			C416.681,44.47,372.211,0,317.549,0s-99.132,44.47-99.132,99.132v55.129c0,4.512,3.658,8.17,8.17,8.17
			c4.512,0,8.17-3.658,8.17-8.17V99.132c0-45.652,37.14-82.791,82.792-82.791s82.792,37.14,82.792,82.791v52.289H384V99.132
			c0-36.642-29.809-66.451-66.451-66.451c-36.642,0-66.451,29.809-66.451,66.451v85.913c0,4.512,3.658,8.17,8.17,8.17
			c4.512,0,8.17-3.658,8.17-8.17V99.132c0-27.631,22.48-50.111,50.111-50.111c27.631,0,50.111,22.48,50.111,50.111v52.764
			c-3.171,1.123-5.447,4.14-5.447,7.695v270.808c-18.507,1.226-33.686,14.821-37.305,32.58h-32.85c-4.512,0-8.17,3.658-8.17,8.17
			v32.681c0,4.512,3.658,8.17,8.17,8.17h200.225c4.512,0,8.17-3.658,8.17-8.17v-32.681
			C500.453,466.637,496.795,462.979,492.283,462.979z M378.553,167.762h27.234v262.536h-27.234V167.762z M364.936,446.638h54.468
			c10.652,0,19.733,6.831,23.105,16.34H341.831C345.203,453.47,354.284,446.638,364.936,446.638z M484.112,495.66L484.112,495.66
			H300.228v-16.34h183.884V495.66z"/>
	</g>
</g>
<g>
</g>
<g>
</g>
<g>
</g>
<g>
</g>
<g>
</g>
<g>
</g>
<g>
</g>
<g>
</g>
<g>
</g>
<g>
</g>
<g>
</g>
<g>
</g>
<g>
</g>
<g>
</g>
<g>
</g>
</svg>
