<?xml version="1.0"?>
<svg fill="currentColor" xmlns="http://www.w3.org/2000/svg" viewBox="0 0 512 512"><path d="M456,344v8H432a8.00008,8.00008,0,0,0-8,8v7.53345a75.99989,75.99989,0,0,0-93.65674,10.80932L324.686,384H280a31.99011,31.99011,0,0,0-27.70557,48H152a32,32,0,0,0,0,64H326.311A197.8187,197.8187,0,0,0,424,470.30811V472a8.00008,8.00008,0,0,0,8,8h24v8a8.00008,8.00008,0,0,0,8,8h32V480H472V352h24V336H464A8.00008,8.00008,0,0,0,456,344ZM326.311,480H152a16,16,0,0,1,0-32H344a8,8,0,0,0,0-16H280a16,16,0,0,1,0-32h48a8.00035,8.00035,0,0,0,5.65674-2.34277l8-8A59.87392,59.87392,0,0,1,424,387.44141v64.21167A181.9166,181.9166,0,0,1,326.311,480ZM440,464V368h16v96Z"/><path d="M184,224h40a8.00008,8.00008,0,0,0,8-8V184a8.00008,8.00008,0,0,0-8-8H184a8.00008,8.00008,0,0,0-8,8v32A8.00008,8.00008,0,0,0,184,224Zm8-32h24v16H192Z"/><path d="M304,184a8.00008,8.00008,0,0,0-8-8H256a8.00008,8.00008,0,0,0-8,8v32a8.00008,8.00008,0,0,0,8,8h40a8.00008,8.00008,0,0,0,8-8Zm-16,24H264V192h24Z"/><path d="M176,280a8.00008,8.00008,0,0,0,8,8h40a8.00008,8.00008,0,0,0,8-8V248a8.00008,8.00008,0,0,0-8-8H184a8.00008,8.00008,0,0,0-8,8Zm16-24h24v16H192Z"/><path d="M304,248a8.00008,8.00008,0,0,0-8-8H256a8.00008,8.00008,0,0,0-8,8v32a8.00008,8.00008,0,0,0,8,8h40a8.00008,8.00008,0,0,0,8-8Zm-16,24H264V256h24Z"/><path d="M176,344a8.00008,8.00008,0,0,0,8,8h40a8.00008,8.00008,0,0,0,8-8V312a8.00008,8.00008,0,0,0-8-8H184a8.00008,8.00008,0,0,0-8,8Zm16-24h24v16H192Z"/><path d="M296,304H256a8.00008,8.00008,0,0,0-8,8v32a8.00008,8.00008,0,0,0,8,8h40a8.00008,8.00008,0,0,0,8-8V312A8.00008,8.00008,0,0,0,296,304Zm-8,32H264V320h24Z"/><path d="M216,384h32V368H208a8.00008,8.00008,0,0,0-8,8v40h16Z"/><path d="M272,16H64a8.00008,8.00008,0,0,0-8,8V440a8.00008,8.00008,0,0,0,8,8h40V432H72V32H264V144H248V120a8.00008,8.00008,0,0,0-8-8H184a8.00008,8.00008,0,0,0-8,8v24H160V120a8.00008,8.00008,0,0,0-8-8H96a8.00008,8.00008,0,0,0-8,8v32a8.00008,8.00008,0,0,0,8,8h48v16H96a8.00008,8.00008,0,0,0-8,8v32a8.00008,8.00008,0,0,0,8,8h48v16H96a8.00008,8.00008,0,0,0-8,8v32a8.00008,8.00008,0,0,0,8,8h48v40H120a8.00008,8.00008,0,0,0-8,8v88h16V344h16v72h16V160H320V352h16V152a8.00008,8.00008,0,0,0-8-8H280V24A8.00008,8.00008,0,0,0,272,16ZM192,128h40v16H192Zm-88,0h40v16H104Zm0,80V192h40v16Zm0,64V256h40v16Z"/><path d="M96,96h56a8.00008,8.00008,0,0,0,8-8V56a8.00008,8.00008,0,0,0-8-8H96a8.00008,8.00008,0,0,0-8,8V88A8.00008,8.00008,0,0,0,96,96Zm8-32h40V80H104Z"/><path d="M184,96h56a8.00008,8.00008,0,0,0,8-8V56a8.00008,8.00008,0,0,0-8-8H184a8.00008,8.00008,0,0,0-8,8V88A8.00008,8.00008,0,0,0,184,96Zm8-32h40V80H192Z"/></svg>
